<svg width="1240" height="1334" xmlns="http://www.w3.org/2000/svg" clip-rule="evenodd">

 <g>
  <title>background</title>
  <rect fill="none" id="canvas_background" height="1336" width="1242" y="-1" x="-1"/>
 </g>
 <g>
  <title>Layer 1</title>
  <path id="svg_1" fill-rule="nonzero" fill="rgba(255, 255, 255, 0.2)" d="m1152.923679,1080.74c-9.35,69.41 -56.05,129.48 -121.45,156.17c-32.04,13.33 -66.73,17.35 -101.44,13.33c-33.36,-4 -66.73,-14.68 -101.43,-34.68c-48.06,-26.72 -96.11,-68.08 -152.16,-129.48c88.09,-108.11 141.47,-206.88 161.5,-294.94c9.34,-41.39 10.68,-78.76 6.68,-113.46c-5.33,-33.36 -17.35,-64.07 -36.04,-90.76c-41.37,-60.05 -110.77,-94.76 -188.19,-94.76c-77.41,0 -146.81,36.04 -188.19,94.76c-18.69,26.69 -30.69,57.4 -36.04,90.76c-5.33,34.7 -4,73.41 6.68,113.46c20.01,88.07 74.73,188.17 161.49,296.26c-54.72,61.41 -104.11,102.79 -152.16,129.48c-34.69,20.03 -68.06,30.7 -101.43,34.69a213.58,213.58 0 0 1 -101.44,-13.33c-65.4,-26.69 -112.1,-86.77 -121.45,-156.17c-4,-33.36 -1.33,-66.72 12.02,-104.09c4,-13.36 10.68,-26.68 17.35,-42.7c9.35,-21.35 20.03,-44.06 30.69,-66.75l1.35,-2.65c92.08,-198.88 190.85,-401.74 293.62,-599.26l4,-8.03c10.69,-20 21.35,-41.35 32.04,-61.37c10.67,-21.36 22.68,-41.39 37.36,-58.74c28.03,-32.04 65.4,-49.39 106.77,-49.39c41.37,0 78.75,17.35 106.78,49.39c14.68,17.36 26.69,37.39 37.37,58.74c10.68,20.03 21.35,41.37 32.03,61.37l4.01,8.03c101.43,198.85 200.2,401.72 292.29,600.59l0,1.32c10.68,21.36 20.01,45.4 30.69,66.75c6.68,16.02 13.35,29.35 17.35,42.7c10.68,34.69 14.68,68.08 9.35,102.76zm-532.53,-62.73c-72.07,-90.75 -118.79,-176.17 -134.8,-248.22c-6.67,-30.71 -8.01,-57.4 -4,-81.43c2.67,-21.36 10.68,-40.05 21.35,-56.08c25.36,-36 68.07,-58.73 117.45,-58.73c49.39,0 93.43,21.37 117.45,58.73c10.67,16.03 18.68,34.72 21.35,56.08c4,24.03 2.67,52.06 -4,81.43c-16.02,70.73 -62.73,156.14 -134.8,248.22zm601.93,-69.4c-6.67,-16.01 -13.35,-33.36 -20.01,-48.04c-10.68,-24.01 -21.36,-46.72 -30.71,-68.08l-1.33,-1.32c-92.08,-200.21 -190.85,-403.08 -294.96,-603.25l-4,-8.03c-10.68,-20.03 -21.36,-41.39 -32.03,-62.73c-13.36,-24.04 -26.7,-49.37 -48.05,-73.41c-42.72,-53.39 -104.11,-82.75 -169.5,-82.75c-66.74,0 -126.79,29.36 -170.84,80.09c-20.01,24.01 -34.69,49.37 -48.04,73.41c-10.68,21.35 -21.36,42.7 -32.04,62.73l-4,7.99c-102.76,200.2 -202.86,403.07 -294.96,603.27l-1.33,2.67c-9.35,21.35 -20.03,44.02 -30.71,68.06c-6.67,14.69 -13.35,30.71 -20.01,48.06c-17.36,49.37 -22.69,96.09 -16.03,144.13c14.69,100.11 81.43,184.2 173.52,221.56c34.69,14.69 70.73,21.36 108.11,21.36c10.68,0 24.02,-1.33 34.7,-2.68c44.04,-5.35 89.41,-20 133.45,-45.37c54.73,-30.69 106.78,-74.73 165.5,-138.8c58.72,64.07 112.11,108.11 165.49,138.8c44.06,25.37 89.43,40.03 133.47,45.37c10.68,1.35 24.02,2.68 34.7,2.68c37.37,0 74.73,-6.67 108.11,-21.36c93.43,-37.36 158.82,-122.78 173.5,-221.56c10.68,-46.72 5.33,-93.41 -12.01,-142.81l0.01,0.01z"/>
  <text xml:space="preserve" text-anchor="start" font-family="Helvetica, Arial, sans-serif" font-size="24" id="svg_2" y="541" x="280" stroke-width="0" stroke="#FF0000" fill="#000000"/>
 </g>
</svg>