<?xml version="1.0" encoding="utf-8"?>
<!-- Generator: Adobe Illustrator 16.0.0, SVG Export Plug-In . SVG Version: 6.00 Build 0)  -->
<!DOCTYPE svg PUBLIC "-//W3C//DTD SVG 1.0//EN" "http://www.w3.org/TR/2001/REC-SVG-20010904/DTD/svg10.dtd">
<svg version="1.0" id="Layer_1" xmlns="http://www.w3.org/2000/svg" xmlns:xlink="http://www.w3.org/1999/xlink" x="0px" y="0px"
	 width="100px" height="100px" viewBox="0 0 100 100" enable-background="new 0 0 100 100" xml:space="preserve">
<rect x="23.333" y="56.666" fill="#E6625E" width="10" height="6.668"/>
<rect x="50" y="23.333" fill="#C5BEAA" width="26.667" height="6.667"/>
<rect x="50" y="36.667" fill="#C5BEAA" width="26.667" height="6.667"/>
<rect x="23.333" y="43.333" fill="#E6625E" width="13.334" height="6.667"/>
<path fill="#C5BEAA" d="M83.333,10h-40c-3.665,0-6.666,3.001-6.666,6.667V50c0,3.666,3.001,6.666,6.666,6.666H70L83.333,70V56.666
	c3.666,0,6.667-3,6.667-6.666V16.667C90,13.001,86.999,10,83.333,10z M83.333,50h-40V16.667h40V50z"/>
<path fill="#E6625E" d="M36.667,30h-20C13.001,30,10,33.001,10,36.667V70c0,3.666,3.001,6.666,6.667,6.666V90L30,76.666h26.667
	c3.665,0,6.666-3,6.666-6.666V56.666h-6.666V70h-40V36.667h20V30z"/>
</svg>
