<?xml version="1.0" encoding="iso-8859-1"?>
<!-- Generator: Adobe Illustrator 19.0.0, SVG Export Plug-In . SVG Version: 6.00 Build 0)  -->
<svg xmlns="http://www.w3.org/2000/svg" xmlns:xlink="http://www.w3.org/1999/xlink" version="1.1" id="Capa_1" x="0px" y="0px" viewBox="0 0 512 512" style="enable-background:new 0 0 512 512;" xml:space="preserve">
<g>
	<path style="fill:#727272;" d="M56,347.5v-33h19.5c9.098,0,16.5,7.402,16.5,16.5c0,9.098-7.402,16.5-16.5,16.5H56z"/>
	<path style="fill:#727272;" d="M437.5,347.5c-9.098,0-16.5-7.402-16.5-16.5c0-9.098,7.402-16.5,16.5-16.5H459v33H437.5z"/>
</g>
<path style="fill:#FC5D4C;" d="M162,442.268v-26.977c0-13.14,10.652-23.792,23.792-23.792h139.417  c13.14,0,23.792,10.652,23.792,23.792v26.977c0,1.785-1.447,3.232-3.232,3.232H165.232C163.447,445.5,162,444.052,162,442.268z"/>
<g>
	<path style="fill:#C4C5C6;" d="M452,492.362V283.344l9.724,2.259c1.251,0.29,2.522,0.438,3.776,0.438s2.525-0.148,3.776-0.438   l9.724-2.259v209.018c0,1.733-1.405,3.138-3.138,3.138h-20.724C453.405,495.5,452,494.094,452,492.362z"/>
	<path style="fill:#C4C5C6;" d="M34,492.362V282.222l9.724,2.271c1.251,0.292,2.522,0.44,3.776,0.44s2.525-0.148,3.776-0.44   L61,282.222v210.139c0,1.733-1.405,3.138-3.138,3.138H37.138C35.405,495.5,34,494.094,34,492.362z"/>
</g>
<g>
	<path style="fill:#9F9FA0;" d="M465.5,492.362V286.039c-1.254,0-2.525-0.147-3.776-0.438L452,283.344v209.018   c0,1.733,1.405,3.138,3.138,3.138h13.5C466.905,495.5,465.5,494.094,465.5,492.362z"/>
	<path style="fill:#9F9FA0;" d="M47.5,492.362V284.933c-1.254,0-2.525-0.148-3.776-0.44L34,282.222v210.139   c0,1.733,1.405,3.138,3.138,3.138h13.5C48.905,495.5,47.5,494.094,47.5,492.362z"/>
</g>
<path style="fill:#9B735A;" d="M7,234.68V21.318c0-2.661,2.157-4.819,4.819-4.819h488.363c2.661,0,4.819,2.157,4.819,4.819v213.363  c0,2.661-2.157,4.819-4.819,4.819H11.819C9.157,239.499,7,237.342,7,234.68z"/>
<path style="fill:#8C5F50;" d="M71.819,179.499c-2.661,0-4.819-2.157-4.819-4.819V16.499H11.819C9.157,16.499,7,18.656,7,21.318  v213.363c0,2.661,2.157,4.819,4.819,4.819h488.363c2.661,0,4.819-2.157,4.819-4.819v-55.182H71.819z"/>
<rect x="32" y="41.499" style="fill:#346DA5;" width="448" height="173"/>
<path style="fill:#999999;" d="M399.5,177.499c-28.397,0-51.5-23.103-51.5-51.5s23.103-51.5,51.5-51.5s51.5,23.103,51.5,51.5  S427.897,177.499,399.5,177.499z"/>
<path style="fill:#7E7E7F;" d="M432.5,159.499c-28.397,0-51.5-23.103-51.5-51.5c0-12.587,4.546-24.129,12.074-33.085  C367.701,78.089,348,99.78,348,125.999c0,28.397,23.103,51.5,51.5,51.5c15.81,0,29.972-7.167,39.426-18.415  C436.819,159.348,434.677,159.499,432.5,159.499z"/>
<path style="fill:#FFDC64;" d="M412.5,131.499c-7.995,0-14.5-6.505-14.5-14.5s6.505-14.5,14.5-14.5s14.5,6.505,14.5,14.5  S420.495,131.499,412.5,131.499z"/>
<path style="fill:#FFBD52;" d="M412.5,102.499c-5.577,0-10.421,3.17-12.846,7.799c2.007-1.051,4.284-1.654,6.701-1.654  c7.995,0,14.5,6.505,14.5,14.5c0,2.418-0.603,4.695-1.654,6.701c4.629-2.425,7.799-7.269,7.799-12.846  C427,109.004,420.495,102.499,412.5,102.499z"/>
<path style="fill:#244559;" d="M32,214.499v-173h116.778l-3.046,10.274c-1.984,6.693-3.726,13.591-5.177,20.504l-1.211,5.771  l-5.872,0.551C122.553,79.623,114,89.022,114,99.999c0,9.411,6.303,17.879,15.327,20.592l5.648,1.698l0.048,5.898  c0.213,25.916,4.215,51.458,11.896,75.916l3.265,10.397L32,214.499L32,214.499z"/>
<path style="fill:#2C5470;" d="M149.29,214.499l-1.828-5.461c-8.621-25.755-13.14-52.736-13.432-80.191l-0.069-6.458l6.298-1.429  c9.7-2.201,16.741-11.017,16.741-20.961c0-8.446-5-16.148-12.736-19.623l-5.89-2.645l1.342-6.316  c1.747-8.22,3.902-16.405,6.406-24.327l1.766-5.589h92.124l-5.149,11.314C224.485,75.613,219,100.92,219,125.999  c0,5.302,0.244,10.704,0.726,16.056l0.468,5.204l-4.576,2.521c-5.933,3.266-9.618,9.482-9.618,16.219  c0,9.934,7.771,18.051,17.69,18.478l5.23,0.226l1.887,4.883c1.759,4.551,3.723,9.066,5.836,13.419l5.58,11.494H149.29z"/>
<path style="fill:#325F84;" d="M241.532,214.499l-2.268-4.196c-3.225-5.966-6.145-12.209-8.678-18.556l-2.533-6.345l5.87-3.495  c5.599-3.333,9.078-9.43,9.078-15.908c0-9.601-7.494-17.699-17.062-18.436l-6.82-0.526l-0.54-6.819  c-0.385-4.845-0.579-9.63-0.579-14.219c0-27.748,6.597-55.45,19.078-80.112l2.221-4.388h92.056l-12.458,13.439  c-7.44,8.026-13.548,17.1-18.153,26.969l-2.254,4.831l-5.327-0.221c-0.22-0.009-0.44-0.019-0.662-0.019  c-9.098,0-16.5,7.402-16.5,16.5c0,6.648,3.971,12.62,10.115,15.213l4.909,2.072l-0.022,5.629  c-0.001,28.067,11.48,55.322,31.5,74.861l14.063,13.725h-95.034V214.499z"/>
<g>
	<path style="fill:#FFDC64;" d="M292.5,120.499c-9.649,0-17.5-7.851-17.5-17.5s7.851-17.5,17.5-17.5s17.5,7.851,17.5,17.5   S302.149,120.499,292.5,120.499z"/>
	<path style="fill:#FFDC64;" d="M224.5,185.499c-10.752,0-19.5-8.748-19.5-19.5s8.748-19.5,19.5-19.5s19.5,8.748,19.5,19.5   S235.252,185.499,224.5,185.499z"/>
	<path style="fill:#FFDC64;" d="M135.5,122.499c-12.407,0-22.5-10.093-22.5-22.5s10.093-22.5,22.5-22.5s22.5,10.093,22.5,22.5   S147.907,122.499,135.5,122.499z"/>
</g>
<g>
	<path style="fill:#FFBD52;" d="M292.602,93.999c0-3.019,0.769-5.861,2.12-8.343c-0.73-0.093-1.468-0.157-2.223-0.157   c-9.649,0-17.5,7.851-17.5,17.5s7.851,17.5,17.5,17.5c6.631,0,12.411-3.707,15.38-9.157   C299.278,110.244,292.602,102.894,292.602,93.999z"/>
	<path style="fill:#FFBD52;" d="M222.602,156.999c0-3.842,1.132-7.418,3.059-10.441c-0.386-0.023-0.769-0.059-1.161-0.059   c-10.752,0-19.5,8.748-19.5,19.5s8.748,19.5,19.5,19.5c6.91,0,12.977-3.623,16.441-9.059   C230.73,175.835,222.602,167.36,222.602,156.999z"/>
	<path style="fill:#FFBD52;" d="M153.102,113.499c-12.407,0-22.5-10.093-22.5-22.5c0-5.057,1.678-9.729,4.504-13.49   C122.881,77.721,113,87.724,113,99.999c0,12.407,10.093,22.5,22.5,22.5c7.35,0,13.887-3.543,17.996-9.01   C153.364,113.491,153.234,113.499,153.102,113.499z"/>
</g>
<g>
	<path style="fill:#FFDC64;" d="M78.5,159.499c-4.142,0-7.5-3.358-7.5-7.5v-5c0-4.142,3.358-7.5,7.5-7.5s7.5,3.358,7.5,7.5v5   C86,156.141,82.642,159.499,78.5,159.499z"/>
	<path style="fill:#FFDC64;" d="M94.5,172.499h-5c-4.142,0-7.5-3.358-7.5-7.5s3.358-7.5,7.5-7.5h5c4.142,0,7.5,3.358,7.5,7.5   S98.642,172.499,94.5,172.499z"/>
	<path style="fill:#FFDC64;" d="M76.5,188.499c-4.142,0-7.5-3.358-7.5-7.5v-5c0-4.142,3.358-7.5,7.5-7.5s7.5,3.358,7.5,7.5v5   C84,185.141,80.642,188.499,76.5,188.499z"/>
	<path style="fill:#FFDC64;" d="M65.5,170.499h-5c-4.142,0-7.5-3.358-7.5-7.5s3.358-7.5,7.5-7.5h5c4.142,0,7.5,3.358,7.5,7.5   S69.642,170.499,65.5,170.499z"/>
</g>
<g>
	<path style="fill:#FFC850;" d="M47.5,297.5c-10.201,0-18.5-8.299-18.5-18.5s8.299-18.5,18.5-18.5S66,268.799,66,279   S57.701,297.5,47.5,297.5z"/>
	<path style="fill:#FFC850;" d="M465.5,297.5c-10.201,0-18.5-8.299-18.5-18.5s8.299-18.5,18.5-18.5S484,268.799,484,279   S475.701,297.5,465.5,297.5z"/>
</g>
<g>
	<path style="fill:#FFBD52;" d="M49.782,279c0-6.351,3.219-11.962,8.109-15.295c-2.964-2.02-6.541-3.205-10.391-3.205   c-10.201,0-18.5,8.299-18.5,18.5s8.299,18.5,18.5,18.5c3.85,0,7.427-1.185,10.391-3.205C53.001,290.961,49.782,285.351,49.782,279z   "/>
	<path style="fill:#FFBD52;" d="M467.782,279c0-6.351,3.219-11.962,8.109-15.295c-2.964-2.02-6.541-3.205-10.391-3.205   c-10.201,0-18.5,8.299-18.5,18.5s8.299,18.5,18.5,18.5c3.85,0,7.427-1.185,10.391-3.205   C471.001,290.961,467.782,285.351,467.782,279z"/>
</g>
<path style="fill:#D8483D;" d="M315.223,419.945H206.484c-2.107,0-3.816-1.708-3.816-3.816v-0.838  c0-13.14,10.652-23.792,23.792-23.792h-40.668c-13.14,0-23.792,10.652-23.792,23.792v26.977c0,1.785,1.447,3.232,3.232,3.232H205.9  c-1.785,0-3.232-1.447-3.232-3.232v-6.632c0-2.107,1.708-3.816,3.816-3.816h108.739c3.279,0,5.937-2.658,5.937-5.937l0,0  C321.16,422.604,318.502,419.945,315.223,419.945z"/>
<path d="M361.5,487.5H356V445v-29.708c0-16.979-13.813-30.792-30.792-30.792H185.792c-16.979,0-30.792,13.813-30.792,30.792V445  v42.5h-5.5c-4.142,0-7.5,3.358-7.5,7.5c0,4.142,3.358,7.5,7.5,7.5h27c4.142,0,7.5-3.358,7.5-7.5c0-4.142-3.358-7.5-7.5-7.5H170v-35  h171v35h-6.5c-4.142,0-7.5,3.358-7.5,7.5c0,4.142,3.358,7.5,7.5,7.5h27c4.142,0,7.5-3.358,7.5-7.5  C369,490.857,365.642,487.5,361.5,487.5z M170,431.506h34.5c4.142,0,7.5-3.358,7.5-7.5c0-4.142-3.358-7.5-7.5-7.5H170v-1.215  c0-8.708,7.084-15.792,15.792-15.792h139.417c8.708,0,15.792,7.084,15.792,15.792V437.5H170V431.506z"/>
<path d="M489,487.5h-3V294.144c3.139-4.238,5-9.478,5-15.145c0-14.061-11.439-25.5-25.5-25.5S440,264.938,440,279  c0,5.667,1.861,10.907,5,15.145V307.5h-7.5c-11.176,0-20.549,7.845-22.917,18.315c-105.968,45.315-212.291,45.328-316.158,0.038  C96.071,315.364,86.69,307.5,75.5,307.5H68v-13.355c3.139-4.238,5-9.478,5-15.145c0-14.061-11.439-25.5-25.5-25.5S22,264.938,22,279  c0,5.667,1.861,10.907,5,15.145V487.5h-3c-4.142,0-7.5,3.358-7.5,7.5c0,4.142,3.358,7.5,7.5,7.5h10.5h26H70  c4.142,0,7.5-3.358,7.5-7.5c0-4.142-3.358-7.5-7.5-7.5h-2v-133h7.5c9.232,0,17.234-5.353,21.074-13.116  c52.552,22.316,106.028,33.631,159.095,33.631c0.055,0,0.113,0,0.168,0c53.049-0.024,107.022-11.358,160.56-33.685  c3.83,7.793,11.849,13.171,21.102,13.171h7.5v133h-2c-4.142,0-7.5,3.358-7.5,7.5c0,4.142,3.358,7.5,7.5,7.5h9.5h26H489  c4.142,0,7.5-3.358,7.5-7.5C496.5,490.859,493.142,487.5,489,487.5z M37,279c0-5.79,4.71-10.5,10.5-10.5S58,273.209,58,279  c0,5.79-4.71,10.5-10.5,10.5S37,284.789,37,279z M53,487.5H42V303.896c1.773,0.391,3.611,0.604,5.5,0.604s3.727-0.213,5.5-0.604V315  v32V487.5z M75.5,339.5H68v-17h7.5c4.687,0,8.5,3.813,8.5,8.5S80.187,339.5,75.5,339.5z M437.5,339.5c-4.687,0-8.5-3.813-8.5-8.5  s3.813-8.5,8.5-8.5h7.5v17H437.5z M471,487.5h-11V347v-32v-11.104c1.773,0.391,3.611,0.604,5.5,0.604s3.727-0.213,5.5-0.604V487.5z   M465.5,289.5c-5.79,0-10.5-4.71-10.5-10.5c0-5.79,4.71-10.5,10.5-10.5s10.5,4.71,10.5,10.5C476,284.789,471.29,289.5,465.5,289.5z"/>
<path d="M504.5,9.499H7.5c-4.142,0-7.5,3.358-7.5,7.5v222c0,4.142,3.358,7.5,7.5,7.5h497c4.142,0,7.5-3.358,7.5-7.5v-222  C512,12.857,508.642,9.499,504.5,9.499z M497,231.499H15v-207h482V231.499z"/>
<path d="M399.5,184.499c32.257,0,58.5-26.243,58.5-58.5s-26.243-58.5-58.5-58.5s-58.5,26.243-58.5,58.5  S367.243,184.499,399.5,184.499z M399.5,82.499c23.986,0,43.5,19.514,43.5,43.5s-19.514,43.5-43.5,43.5s-43.5-19.514-43.5-43.5  S375.514,82.499,399.5,82.499z"/>
<path d="M472,190.356v16.143H340.487c-26.374-18.059-42.191-47.728-42.473-79.633C308.875,124.357,317,114.612,317,102.999  c0-7.808-3.676-14.77-9.384-19.259c6.045-12.533,14.781-23.748,25.536-32.704c0.547-0.456,1.007-0.976,1.39-1.537H472v97.196  c0,4.142,3.358,7.5,7.5,7.5l0,0c4.142,0,7.5-3.358,7.5-7.5V41.999c0-4.142-3.358-7.5-7.5-7.5H239.698c-0.029,0-0.057,0-0.086,0H32.5  c-4.142,0-7.5,3.358-7.5,7.5v172c0,4.142,3.358,7.5,7.5,7.5h117.127c0.028,0,0.055,0.006,0.082,0.006c0.05,0,0.1-0.005,0.149-0.006  H479.5c4.142,0,7.5-3.358,7.5-7.5v-23.643c0-4.142-3.358-7.5-7.5-7.5l0,0C475.358,182.856,472,186.214,472,190.356z M292.5,112.499  c-5.238,0-9.5-4.262-9.5-9.5s4.262-9.5,9.5-9.5s9.5,4.262,9.5,9.5S297.738,112.499,292.5,112.499z M40,206.499v-157h98.062  c-2.064,6.961-3.845,14.029-5.336,21.135C117.756,72.037,106,84.669,106,99.999c0,13.32,8.877,24.602,21.024,28.253  c0.219,26.735,4.334,52.998,12.263,78.247H40z M150,99.999c0,7.995-6.505,14.5-14.5,14.5s-14.5-6.505-14.5-14.5  s6.505-14.5,14.5-14.5S150,92.004,150,99.999z M155.048,206.499c-8.37-25.006-12.735-51.119-13.019-77.737  C155.163,125.781,165,114.021,165,99.999c0-11.978-7.18-22.304-17.459-26.92c1.69-7.949,3.765-15.845,6.209-23.58h73.831  C216.712,73.38,211,99.581,211,125.999c0,5.589,0.257,11.21,0.758,16.773C203.565,147.285,198,156.003,198,165.999  c0,14.225,11.268,25.864,25.346,26.471c1.836,4.75,3.872,9.437,6.102,14.029L155.048,206.499L155.048,206.499z M224.5,177.499  c-6.341,0-11.5-5.159-11.5-11.5s5.159-11.5,11.5-11.5s11.5,5.159,11.5,11.5S230.841,177.499,224.5,177.499z M246.301,206.499  c-3.1-5.735-5.871-11.667-8.286-17.718c7.768-4.625,12.985-13.104,12.985-22.782c0-13.921-10.791-25.36-24.447-26.413  c-0.357-4.514-0.553-9.06-0.553-13.587c0-26.593,6.293-52.941,18.216-76.5h68.814c-7.974,8.601-14.586,18.415-19.536,29.025  c-0.33-0.013-0.66-0.025-0.993-0.025c-13.509,0-24.5,10.991-24.5,24.5c0,10.144,6.198,18.867,15.005,22.584  c0,0.138-0.005,0.278-0.005,0.416c0,30.613,12.407,59.51,33.914,80.5H246.301z"/>
<path d="M412.5,138.499c11.855,0,21.5-9.645,21.5-21.5s-9.645-21.5-21.5-21.5s-21.5,9.645-21.5,21.5S400.645,138.499,412.5,138.499z   M412.5,110.499c3.584,0,6.5,2.916,6.5,6.5s-2.916,6.5-6.5,6.5s-6.5-2.916-6.5-6.5S408.916,110.499,412.5,110.499z"/>
<g>
</g>
<g>
</g>
<g>
</g>
<g>
</g>
<g>
</g>
<g>
</g>
<g>
</g>
<g>
</g>
<g>
</g>
<g>
</g>
<g>
</g>
<g>
</g>
<g>
</g>
<g>
</g>
<g>
</g>
</svg>
