<?xml version="1.0" encoding="utf-8"?>
<!-- Generator: Adobe Illustrator 16.0.0, SVG Export Plug-In . SVG Version: 6.00 Build 0)  -->
<!DOCTYPE svg PUBLIC "-//W3C//DTD SVG 1.1//EN" "http://www.w3.org/Graphics/SVG/1.1/DTD/svg11.dtd">
<svg version="1.1" id="icons" xmlns="http://www.w3.org/2000/svg" xmlns:xlink="http://www.w3.org/1999/xlink" x="0px" y="0px"
	 width="64px" height="64px" viewBox="0 0 64 64" enable-background="new 0 0 64 64" xml:space="preserve">
<g>
	<rect x="27" y="31" fill="#CCD1D9" width="10" height="24"/>
	<path fill="#AAB2BD" d="M32,38.001c1.1,0,2,0.89,2,2c0,1.1-0.9,2-2,2s-2-0.9-2-2C30,38.891,30.9,38.001,32,38.001z"/>
	<path fill="#545C66" d="M12.99,24.01V27h34.02h4v-2.99V23H59c2.2,0,4,1.8,4,4v8c0-2.2-1.8-4-4-4H37H27H5c-2.2,0-4,1.8-4,4v-8
		c0-2.2,1.8-4,4-4h7.99V24.01z"/>
	<path fill="#656D78" d="M63,43v8c0,2.2-1.8,4-4,4H37V31h22c2.2,0,4,1.8,4,4V43z"/>
	<path fill="#656D78" d="M27,31v24H5c-2.2,0-4-1.8-4-4v-8v-8c0-2.2,1.8-4,4-4H27z"/>
	<g>
		<path fill="#434A54" d="M54.002,28H10.998c-0.553,0-1-0.447-1-1s0.447-1,1-1h43.004c0.553,0,1,0.447,1,1S54.555,28,54.002,28z"/>
	</g>
	<g>
		<g>
			<path fill="#545C66" d="M4.032,52.002c-0.553,0-1.005-0.447-1.005-1s0.442-1,0.994-1h0.011c0.552,0,1,0.447,1,1
				S4.584,52.002,4.032,52.002z"/>
		</g>
		<g>
			<path fill="#545C66" d="M4.032,44.002c-0.553,0-1.005-0.447-1.005-1s0.442-1,0.994-1h0.011c0.552,0,1,0.447,1,1
				S4.584,44.002,4.032,44.002z"/>
		</g>
		<g>
			<path fill="#545C66" d="M8.032,48.002c-0.553,0-1.005-0.447-1.005-1s0.442-1,0.994-1h0.011c0.552,0,1,0.447,1,1
				S8.584,48.002,8.032,48.002z"/>
		</g>
		<g>
			<path fill="#545C66" d="M12.032,52.002c-0.553,0-1.005-0.447-1.005-1s0.442-1,0.994-1h0.011c0.552,0,1,0.447,1,1
				S12.584,52.002,12.032,52.002z"/>
		</g>
		<g>
			<path fill="#545C66" d="M4.032,36.002c-0.553,0-1.005-0.447-1.005-1s0.442-1,0.994-1h0.011c0.552,0,1,0.447,1,1
				S4.584,36.002,4.032,36.002z"/>
		</g>
		<g>
			<path fill="#545C66" d="M8.032,40.002c-0.553,0-1.005-0.447-1.005-1s0.442-1,0.994-1h0.011c0.552,0,1,0.447,1,1
				S8.584,40.002,8.032,40.002z"/>
		</g>
		<g>
			<path fill="#545C66" d="M12.032,44.002c-0.553,0-1.005-0.447-1.005-1s0.442-1,0.994-1h0.011c0.552,0,1,0.447,1,1
				S12.584,44.002,12.032,44.002z"/>
		</g>
		<g>
			<path fill="#545C66" d="M16.032,48.002c-0.553,0-1.005-0.447-1.005-1s0.442-1,0.994-1h0.011c0.552,0,1,0.447,1,1
				S16.584,48.002,16.032,48.002z"/>
		</g>
		<g>
			<path fill="#545C66" d="M20.032,52.002c-0.553,0-1.005-0.447-1.005-1s0.442-1,0.994-1h0.011c0.552,0,1,0.447,1,1
				S20.584,52.002,20.032,52.002z"/>
		</g>
		<g>
			<path fill="#545C66" d="M12.032,36.002c-0.553,0-1.005-0.447-1.005-1s0.442-1,0.994-1h0.011c0.552,0,1,0.447,1,1
				S12.584,36.002,12.032,36.002z"/>
		</g>
		<g>
			<path fill="#545C66" d="M16.032,40.002c-0.553,0-1.005-0.447-1.005-1s0.442-1,0.994-1h0.011c0.552,0,1,0.447,1,1
				S16.584,40.002,16.032,40.002z"/>
		</g>
		<g>
			<path fill="#545C66" d="M20.032,44.002c-0.553,0-1.005-0.447-1.005-1s0.442-1,0.994-1h0.011c0.552,0,1,0.447,1,1
				S20.584,44.002,20.032,44.002z"/>
		</g>
		<g>
			<path fill="#545C66" d="M24.032,48.002c-0.553,0-1.005-0.447-1.005-1s0.442-1,0.994-1h0.011c0.552,0,1,0.447,1,1
				S24.584,48.002,24.032,48.002z"/>
		</g>
		<g>
			<path fill="#545C66" d="M20.032,36.002c-0.553,0-1.005-0.447-1.005-1s0.442-1,0.994-1h0.011c0.552,0,1,0.447,1,1
				S20.584,36.002,20.032,36.002z"/>
		</g>
		<g>
			<path fill="#545C66" d="M24.032,40.002c-0.553,0-1.005-0.447-1.005-1s0.442-1,0.994-1h0.011c0.552,0,1,0.447,1,1
				S24.584,40.002,24.032,40.002z"/>
		</g>
		<g>
			<path fill="#545C66" d="M40.032,48.002c-0.553,0-1.005-0.447-1.005-1s0.442-1,0.994-1h0.011c0.552,0,1,0.447,1,1
				S40.584,48.002,40.032,48.002z"/>
		</g>
		<g>
			<path fill="#545C66" d="M44.032,52.002c-0.553,0-1.005-0.447-1.005-1s0.442-1,0.994-1h0.011c0.552,0,1,0.447,1,1
				S44.584,52.002,44.032,52.002z"/>
		</g>
		<g>
			<path fill="#545C66" d="M40.032,40.002c-0.553,0-1.005-0.447-1.005-1s0.442-1,0.994-1h0.011c0.552,0,1,0.447,1,1
				S40.584,40.002,40.032,40.002z"/>
		</g>
		<g>
			<path fill="#545C66" d="M44.032,44.002c-0.553,0-1.005-0.447-1.005-1s0.442-1,0.994-1h0.011c0.552,0,1,0.447,1,1
				S44.584,44.002,44.032,44.002z"/>
		</g>
		<g>
			<path fill="#545C66" d="M48.032,48.002c-0.553,0-1.005-0.447-1.005-1s0.442-1,0.994-1h0.011c0.552,0,1,0.447,1,1
				S48.584,48.002,48.032,48.002z"/>
		</g>
		<g>
			<path fill="#545C66" d="M52.032,52.002c-0.553,0-1.005-0.447-1.005-1s0.442-1,0.994-1h0.011c0.552,0,1,0.447,1,1
				S52.584,52.002,52.032,52.002z"/>
		</g>
		<g>
			<path fill="#545C66" d="M44.032,36.002c-0.553,0-1.005-0.447-1.005-1s0.442-1,0.994-1h0.011c0.552,0,1,0.447,1,1
				S44.584,36.002,44.032,36.002z"/>
		</g>
		<g>
			<path fill="#545C66" d="M48.032,40.002c-0.553,0-1.005-0.447-1.005-1s0.442-1,0.994-1h0.011c0.552,0,1,0.447,1,1
				S48.584,40.002,48.032,40.002z"/>
		</g>
		<g>
			<path fill="#545C66" d="M52.032,44.002c-0.553,0-1.005-0.447-1.005-1s0.442-1,0.994-1h0.011c0.552,0,1,0.447,1,1
				S52.584,44.002,52.032,44.002z"/>
		</g>
		<g>
			<path fill="#545C66" d="M56.032,48.002c-0.553,0-1.005-0.447-1.005-1s0.442-1,0.994-1h0.011c0.552,0,1,0.447,1,1
				S56.584,48.002,56.032,48.002z"/>
		</g>
		<g>
			<path fill="#545C66" d="M60.032,52.002c-0.553,0-1.005-0.447-1.005-1s0.442-1,0.994-1h0.011c0.552,0,1,0.447,1,1
				S60.584,52.002,60.032,52.002z"/>
		</g>
		<g>
			<path fill="#545C66" d="M52.032,36.002c-0.553,0-1.005-0.447-1.005-1s0.442-1,0.994-1h0.011c0.552,0,1,0.447,1,1
				S52.584,36.002,52.032,36.002z"/>
		</g>
		<g>
			<path fill="#545C66" d="M56.032,40.002c-0.553,0-1.005-0.447-1.005-1s0.442-1,0.994-1h0.011c0.552,0,1,0.447,1,1
				S56.584,40.002,56.032,40.002z"/>
		</g>
		<g>
			<path fill="#545C66" d="M60.032,44.002c-0.553,0-1.005-0.447-1.005-1s0.442-1,0.994-1h0.011c0.552,0,1,0.447,1,1
				S60.584,44.002,60.032,44.002z"/>
		</g>
		<g>
			<path fill="#545C66" d="M60.032,36.002c-0.553,0-1.005-0.447-1.005-1s0.442-1,0.994-1h0.011c0.552,0,1,0.447,1,1
				S60.584,36.002,60.032,36.002z"/>
		</g>
	</g>
	<g>
		<path fill="#AAB2BD" d="M34,47h-4c-0.553,0-1-0.447-1-1s0.447-1,1-1h4c0.553,0,1,0.447,1,1S34.553,47,34,47z"/>
	</g>
	<g>
		<path fill="#AAB2BD" d="M34,50h-4c-0.553,0-1-0.447-1-1s0.447-1,1-1h4c0.553,0,1,0.447,1,1S34.553,50,34,50z"/>
	</g>
	<g>
		<path fill="#CCD1D9" d="M12.99,12c0-1.65,1.35-3,3-3h32.02c1.65,0,3,1.35,3,3v3c0-1.65-1.35-3-3-3h-1H15.99c-1.65,0-3,1.35-3,3V12
			z"/>
		<path fill="#E6E9ED" d="M51.01,24.01v3.991h-4V12h1c1.65,0,3,1.35,3,3v8V24.01z"/>
		<path fill="#5D9CEC" d="M47.01,12v16.001H12.99V24.01V23v-8c0-1.65,1.35-3,3-3H47.01z"/>
		<g>
			<g>
				<path fill="#CCD1D9" d="M49.034,24.01c-0.553,0-1.005-0.447-1.005-1s0.442-1,0.994-1h0.011c0.552,0,1,0.447,1,1
					S49.586,24.01,49.034,24.01z"/>
			</g>
		</g>
		<path fill="#E6E9ED" d="M12.99,15v8v1.01v3.991h3V12C14.34,12,12.99,13.35,12.99,15z"/>
		<rect x="15.99" y="12" fill="#E6E9ED" width="31.416" height="2.001"/>
	</g>
	<path fill="#E6E9ED" d="M32,37c1.1,0,2,0.89,2,2c0,1.1-0.9,2-2,2s-2-0.9-2-2C30,37.89,30.9,37,32,37z"/>
</g>
</svg>
